0
SECTION
2
HEADER
9
$ACADVER
1
AC1009
0
ENDSEC
0
SECTION
2
TABLES
0
TABLE
2
LAYER
70
6
0
LAYER
2
0
70
0
62
7
6
CONTINUOUS
0
LAYER
2
OUTLINE
70
0
62
3
6
CONTINUOUS
0
LAYER
2
COMPONENTS
70
0
62
4
6
CONTINUOUS
0
LAYER
2
DOORS_LOCKS
70
0
62
1
6
CONTINUOUS
0
LAYER
2
DIMENSIONS
70
0
62
2
6
CONTINUOUS
0
LAYER
2
LABELS
70
0
62
7
6
CONTINUOUS
0
ENDTAB
0
ENDSEC
0
SECTION
2
ENTITIES
0
TEXT
8
LABELS
10
120.00
20
1720.00
30
0.00
40
28.00
1
1. FRONT ELEVATION VIEW (Scale 1:1 mm)
0
LINE
8
OUTLINE
10
0.00
20
0.00
30
0.00
11
600.00
21
0.00
31
0.00
0
LINE
8
OUTLINE
10
600.00
20
0.00
30
0.00
11
600.00
21
1650.00
31
0.00
0
LINE
8
OUTLINE
10
600.00
20
1650.00
30
0.00
11
0.00
21
1650.00
31
0.00
0
LINE
8
OUTLINE
10
0.00
20
1650.00
30
0.00
11
0.00
21
0.00
31
0.00
0
LINE
8
COMPONENTS
10
20.00
20
1480.00
30
0.00
11
580.00
21
1480.00
31
0.00
0
LINE
8
COMPONENTS
10
580.00
20
1480.00
30
0.00
11
580.00
21
1630.00
31
0.00
0
LINE
8
COMPONENTS
10
580.00
20
1630.00
30
0.00
11
20.00
21
1630.00
31
0.00
0
LINE
8
COMPONENTS
10
20.00
20
1630.00
30
0.00
11
20.00
21
1480.00
31
0.00
0
TEXT
8
LABELS
10
130.00
20
1570.00
30
0.00
40
24.00
1
BITTU XEROX 24/7
0
TEXT
8
LABELS
10
150.00
20
1515.00
30
0.00
40
14.00
1
SMART CAMPUS PRINTING
0
LINE
8
COMPONENTS
10
130.00
20
1200.00
30
0.00
11
470.00
21
1200.00
31
0.00
0
LINE
8
COMPONENTS
10
470.00
20
1200.00
30
0.00
11
470.00
21
1440.00
31
0.00
0
LINE
8
COMPONENTS
10
470.00
20
1440.00
30
0.00
11
130.00
21
1440.00
31
0.00
0
LINE
8
COMPONENTS
10
130.00
20
1440.00
30
0.00
11
130.00
21
1200.00
31
0.00
0
TEXT
8
LABELS
10
170.00
20
1310.00
30
0.00
40
18.00
1
14" FHD TOUCHSCREEN
0
LINE
8
COMPONENTS
10
270.00
20
1455.00
30
0.00
11
330.00
21
1455.00
31
0.00
0
TEXT
8
LABELS
10
240.00
20
1460.00
30
0.00
40
11.00
1
[CAMERA & PIR SENSOR]
0
LINE
8
OUTLINE
10
30.00
20
860.00
30
0.00
11
570.00
21
860.00
31
0.00
0
LINE
8
OUTLINE
10
570.00
20
860.00
30
0.00
11
570.00
21
1150.00
31
0.00
0
LINE
8
OUTLINE
10
570.00
20
1150.00
30
0.00
11
30.00
21
1150.00
31
0.00
0
LINE
8
OUTLINE
10
30.00
20
1150.00
30
0.00
11
30.00
21
860.00
31
0.00
0
LINE
8
COMPONENTS
10
60.00
20
920.00
30
0.00
11
170.00
21
920.00
31
0.00
0
LINE
8
COMPONENTS
10
170.00
20
920.00
30
0.00
11
170.00
21
1070.00
31
0.00
0
LINE
8
COMPONENTS
10
170.00
20
1070.00
30
0.00
11
60.00
21
1070.00
31
0.00
0
LINE
8
COMPONENTS
10
60.00
20
1070.00
30
0.00
11
60.00
21
920.00
31
0.00
0
TEXT
8
LABELS
10
75.00
20
985.00
30
0.00
40
13.00
1
METAL KEYPAD
0
LINE
8
COMPONENTS
10
190.00
20
1010.00
30
0.00
11
250.00
21
1010.00
31
0.00
0
LINE
8
COMPONENTS
10
250.00
20
1010.00
30
0.00
11
250.00
21
1065.00
31
0.00
0
LINE
8
COMPONENTS
10
250.00
20
1065.00
30
0.00
11
190.00
21
1065.00
31
0.00
0
LINE
8
COMPONENTS
10
190.00
20
1065.00
30
0.00
11
190.00
21
1010.00
31
0.00
0
TEXT
8
LABELS
10
198.00
20
1030.00
30
0.00
40
11.00
1
START
0
LINE
8
COMPONENTS
10
190.00
20
930.00
30
0.00
11
250.00
21
930.00
31
0.00
0
LINE
8
COMPONENTS
10
250.00
20
930.00
30
0.00
11
250.00
21
985.00
31
0.00
0
LINE
8
COMPONENTS
10
250.00
20
985.00
30
0.00
11
190.00
21
985.00
31
0.00
0
LINE
8
COMPONENTS
10
190.00
20
985.00
30
0.00
11
190.00
21
930.00
31
0.00
0
TEXT
8
LABELS
10
198.00
20
950.00
30
0.00
40
11.00
1
CANCEL
0
LINE
8
COMPONENTS
10
280.00
20
900.00
30
0.00
11
540.00
21
900.00
31
0.00
0
LINE
8
COMPONENTS
10
540.00
20
900.00
30
0.00
11
540.00
21
1120.00
31
0.00
0
LINE
8
COMPONENTS
10
540.00
20
1120.00
30
0.00
11
280.00
21
1120.00
31
0.00
0
LINE
8
COMPONENTS
10
280.00
20
1120.00
30
0.00
11
280.00
21
900.00
31
0.00
0
TEXT
8
LABELS
10
300.00
20
1040.00
30
0.00
40
14.00
1
SMARTPHONE DOCK
0
TEXT
8
LABELS
10
300.00
20
990.00
30
0.00
40
12.00
1
DYNAMIC UPI QR / NFC TAP
0
TEXT
8
LABELS
10
300.00
20
940.00
30
0.00
40
11.00
1
DIRECT FAST-WIFI / UPLOAD
0
LINE
8
COMPONENTS
10
40.00
20
740.00
30
0.00
11
560.00
21
740.00
31
0.00
0
LINE
8
COMPONENTS
10
560.00
20
740.00
30
0.00
11
560.00
21
840.00
31
0.00
0
LINE
8
COMPONENTS
10
560.00
20
840.00
30
0.00
11
40.00
21
840.00
31
0.00
0
LINE
8
COMPONENTS
10
40.00
20
840.00
30
0.00
11
40.00
21
740.00
31
0.00
0
TEXT
8
LABELS
10
150.00
20
785.00
30
0.00
40
16.00
1
CANON LiDE SCANNER HATCH
0
LINE
8
COMPONENTS
10
90.00
20
540.00
30
0.00
11
510.00
21
540.00
31
0.00
0
LINE
8
COMPONENTS
10
510.00
20
540.00
30
0.00
11
510.00
21
620.00
31
0.00
0
LINE
8
COMPONENTS
10
510.00
20
620.00
30
0.00
11
90.00
21
620.00
31
0.00
0
LINE
8
COMPONENTS
10
90.00
20
620.00
30
0.00
11
90.00
21
540.00
31
0.00
0
TEXT
8
LABELS
10
140.00
20
575.00
30
0.00
40
16.00
1
OUTPUT RETRIEVAL TRAY (A4)
0
LINE
8
DOORS_LOCKS
10
25.00
20
40.00
30
0.00
11
575.00
21
40.00
31
0.00
0
LINE
8
DOORS_LOCKS
10
575.00
20
40.00
30
0.00
11
575.00
21
520.00
31
0.00
0
LINE
8
DOORS_LOCKS
10
575.00
20
520.00
30
0.00
11
25.00
21
520.00
31
0.00
0
LINE
8
DOORS_LOCKS
10
25.00
20
520.00
30
0.00
11
25.00
21
40.00
31
0.00
0
LINE
8
DOORS_LOCKS
10
285.00
20
490.00
30
0.00
11
315.00
21
490.00
31
0.00
0
LINE
8
DOORS_LOCKS
10
315.00
20
490.00
30
0.00
11
315.00
21
505.00
31
0.00
0
LINE
8
DOORS_LOCKS
10
315.00
20
505.00
30
0.00
11
285.00
21
505.00
31
0.00
0
LINE
8
DOORS_LOCKS
10
285.00
20
505.00
30
0.00
11
285.00
21
490.00
31
0.00
0
TEXT
8
LABELS
10
260.00
20
510.00
30
0.00
40
11.00
1
CAM LOCK
0
LINE
8
COMPONENTS
10
70.00
20
90.00
30
0.00
11
210.00
21
90.00
31
0.00
0
LINE
8
COMPONENTS
10
240.00
20
90.00
30
0.00
11
370.00
21
90.00
31
0.00
0
LINE
8
COMPONENTS
10
400.00
20
90.00
30
0.00
11
530.00
21
90.00
31
0.00
0
LINE
8
COMPONENTS
10
70.00
20
130.00
30
0.00
11
210.00
21
130.00
31
0.00
0
LINE
8
COMPONENTS
10
240.00
20
130.00
30
0.00
11
370.00
21
130.00
31
0.00
0
LINE
8
COMPONENTS
10
400.00
20
130.00
30
0.00
11
530.00
21
130.00
31
0.00
0
LINE
8
COMPONENTS
10
70.00
20
170.00
30
0.00
11
210.00
21
170.00
31
0.00
0
LINE
8
COMPONENTS
10
240.00
20
170.00
30
0.00
11
370.00
21
170.00
31
0.00
0
LINE
8
COMPONENTS
10
400.00
20
170.00
30
0.00
11
530.00
21
170.00
31
0.00
0
LINE
8
COMPONENTS
10
70.00
20
210.00
30
0.00
11
210.00
21
210.00
31
0.00
0
LINE
8
COMPONENTS
10
240.00
20
210.00
30
0.00
11
370.00
21
210.00
31
0.00
0
LINE
8
COMPONENTS
10
400.00
20
210.00
30
0.00
11
530.00
21
210.00
31
0.00
0
TEXT
8
LABELS
10
170.00
20
240.00
30
0.00
40
13.00
1
POSITIVE PRESSURE AIR INTAKE
0
LINE
8
DIMENSIONS
10
-60.00
20
0.00
30
0.00
11
-60.00
21
1650.00
31
0.00
0
LINE
8
DIMENSIONS
10
-75.00
20
0.00
30
0.00
11
-45.00
21
0.00
31
0.00
0
LINE
8
DIMENSIONS
10
-75.00
20
1650.00
30
0.00
11
-45.00
21
1650.00
31
0.00
0
TEXT
8
DIMENSIONS
10
-200.00
20
800.00
30
0.00
40
20.00
1
TOTAL H = 1650 mm
0
LINE
8
DIMENSIONS
10
0.00
20
-60.00
30
0.00
11
600.00
21
-60.00
31
0.00
0
LINE
8
DIMENSIONS
10
0.00
20
-75.00
30
0.00
11
0.00
21
-45.00
31
0.00
0
LINE
8
DIMENSIONS
10
600.00
20
-75.00
30
0.00
11
600.00
21
-45.00
31
0.00
0
TEXT
8
DIMENSIONS
10
220.00
20
-100.00
30
0.00
40
20.00
1
WIDTH = 600 mm
0
TEXT
8
LABELS
10
920.00
20
1720.00
30
0.00
40
28.00
1
2. SIDE SECTION PROFILE VIEW (Depth: 600 mm)
0
LINE
8
OUTLINE
10
850.00
20
0.00
30
0.00
11
1450.00
21
0.00
31
0.00
0
LINE
8
OUTLINE
10
1450.00
20
0.00
30
0.00
11
1450.00
21
1650.00
31
0.00
0
LINE
8
OUTLINE
10
1450.00
20
1650.00
30
0.00
11
850.00
21
1650.00
31
0.00
0
LINE
8
OUTLINE
10
850.00
20
1650.00
30
0.00
11
850.00
21
1180.00
31
0.00
0
LINE
8
OUTLINE
10
850.00
20
1180.00
30
0.00
11
800.00
21
880.00
31
0.00
0
LINE
8
OUTLINE
10
800.00
20
880.00
30
0.00
11
850.00
21
840.00
31
0.00
0
LINE
8
OUTLINE
10
850.00
20
840.00
30
0.00
11
850.00
21
0.00
31
0.00
0
LINE
8
COMPONENTS
10
860.00
20
1170.00
30
0.00
11
1430.00
21
1170.00
31
0.00
0
LINE
8
COMPONENTS
10
860.00
20
730.00
30
0.00
11
1430.00
21
730.00
31
0.00
0
LINE
8
COMPONENTS
10
860.00
20
500.00
30
0.00
11
1430.00
21
500.00
31
0.00
0
LINE
8
COMPONENTS
10
860.00
20
230.00
30
0.00
11
1430.00
21
230.00
31
0.00
0
LINE
8
COMPONENTS
10
860.00
20
30.00
30
0.00
11
1430.00
21
30.00
31
0.00
0
LINE
8
COMPONENTS
10
1100.00
20
1200.00
30
0.00
11
1300.00
21
1200.00
31
0.00
0
LINE
8
COMPONENTS
10
1300.00
20
1200.00
30
0.00
11
1300.00
21
1280.00
31
0.00
0
LINE
8
COMPONENTS
10
1300.00
20
1280.00
30
0.00
11
1100.00
21
1280.00
31
0.00
0
LINE
8
COMPONENTS
10
1100.00
20
1280.00
30
0.00
11
1100.00
21
1200.00
31
0.00
0
TEXT
8
LABELS
10
1110.00
20
1235.00
30
0.00
40
12.00
1
PI 5 + POWER CONTROLLER
0
LINE
8
COMPONENTS
10
1340.00
20
1470.00
30
0.00
11
1430.00
21
1470.00
31
0.00
0
LINE
8
COMPONENTS
10
1430.00
20
1470.00
30
0.00
11
1430.00
21
1620.00
31
0.00
0
LINE
8
COMPONENTS
10
1430.00
20
1620.00
30
0.00
11
1340.00
21
1620.00
31
0.00
0
LINE
8
COMPONENTS
10
1340.00
20
1620.00
30
0.00
11
1340.00
21
1470.00
31
0.00
0
TEXT
8
LABELS
10
1310.00
20
1635.00
30
0.00
40
12.00
1
EXHAUST CHIMNEY
0
LINE
8
COMPONENTS
10
880.00
20
740.00
30
0.00
11
1360.00
21
740.00
31
0.00
0
LINE
8
COMPONENTS
10
1360.00
20
740.00
30
0.00
11
1360.00
21
810.00
31
0.00
0
LINE
8
COMPONENTS
10
1360.00
20
810.00
30
0.00
11
880.00
21
810.00
31
0.00
0
LINE
8
COMPONENTS
10
880.00
20
810.00
30
0.00
11
880.00
21
740.00
31
0.00
0
TEXT
8
LABELS
10
980.00
20
770.00
30
0.00
40
13.00
1
CANON LiDE SCANNER (Z=740)
0
LINE
8
COMPONENTS
10
880.00
20
510.00
30
0.00
11
1380.00
21
510.00
31
0.00
0
LINE
8
COMPONENTS
10
1380.00
20
510.00
30
0.00
11
1380.00
21
720.00
31
0.00
0
LINE
8
COMPONENTS
10
1380.00
20
720.00
30
0.00
11
880.00
21
720.00
31
0.00
0
LINE
8
COMPONENTS
10
880.00
20
720.00
30
0.00
11
880.00
21
510.00
31
0.00
0
TEXT
8
LABELS
10
940.00
20
600.00
30
0.00
40
14.00
1
BROTHER HL-L2321D LASER PRINTER
0
LINE
8
COMPONENTS
10
880.00
20
240.00
30
0.00
11
1200.00
21
240.00
31
0.00
0
LINE
8
COMPONENTS
10
1200.00
20
240.00
30
0.00
11
1200.00
21
460.00
31
0.00
0
LINE
8
COMPONENTS
10
1200.00
20
460.00
30
0.00
11
880.00
21
460.00
31
0.00
0
LINE
8
COMPONENTS
10
880.00
20
460.00
30
0.00
11
880.00
21
240.00
31
0.00
0
TEXT
8
LABELS
10
900.00
20
340.00
30
0.00
40
13.00
1
1500 SHEETS A4 STORAGE
0
LINE
8
COMPONENTS
10
1220.00
20
240.00
30
0.00
11
1410.00
21
240.00
31
0.00
0
LINE
8
COMPONENTS
10
1410.00
20
240.00
30
0.00
11
1410.00
21
460.00
31
0.00
0
LINE
8
COMPONENTS
10
1410.00
20
460.00
30
0.00
11
1220.00
21
460.00
31
0.00
0
LINE
8
COMPONENTS
10
1220.00
20
460.00
30
0.00
11
1220.00
21
240.00
31
0.00
0
TEXT
8
LABELS
10
1230.00
20
330.00
30
0.00
40
12.00
1
WASTE BIN
0
LINE
8
COMPONENTS
10
880.00
20
40.00
30
0.00
11
1130.00
21
40.00
31
0.00
0
LINE
8
COMPONENTS
10
1130.00
20
40.00
30
0.00
11
1130.00
21
220.00
31
0.00
0
LINE
8
COMPONENTS
10
1130.00
20
220.00
30
0.00
11
880.00
21
220.00
31
0.00
0
LINE
8
COMPONENTS
10
880.00
20
220.00
30
0.00
11
880.00
21
40.00
31
0.00
0
TEXT
8
LABELS
10
910.00
20
120.00
30
0.00
40
13.00
1
600VA ONLINE UPS
0
LINE
8
COMPONENTS
10
1200.00
20
40.00
30
0.00
11
1410.00
21
40.00
31
0.00
0
LINE
8
COMPONENTS
10
1410.00
20
40.00
30
0.00
11
1410.00
21
160.00
31
0.00
0
LINE
8
COMPONENTS
10
1410.00
20
160.00
30
0.00
11
1200.00
21
160.00
31
0.00
0
LINE
8
COMPONENTS
10
1200.00
20
160.00
30
0.00
11
1200.00
21
40.00
31
0.00
0
TEXT
8
LABELS
10
1210.00
20
90.00
30
0.00
40
12.00
1
AC MCB & METER
0
LINE
8
DIMENSIONS
10
850.00
20
-60.00
30
0.00
11
1450.00
21
-60.00
31
0.00
0
LINE
8
DIMENSIONS
10
850.00
20
-75.00
30
0.00
11
850.00
21
-45.00
31
0.00
0
LINE
8
DIMENSIONS
10
1450.00
20
-75.00
30
0.00
11
1450.00
21
-45.00
31
0.00
0
TEXT
8
DIMENSIONS
10
1080.00
20
-100.00
30
0.00
40
20.00
1
DEPTH = 600 mm
0
TEXT
8
LABELS
10
120.00
20
-150.00
30
0.00
40
28.00
1
3. TOP PLAN VIEW (Roof & Airflow Layout)
0
LINE
8
OUTLINE
10
0.00
20
-800.00
30
0.00
11
600.00
21
-800.00
31
0.00
0
LINE
8
OUTLINE
10
600.00
20
-800.00
30
0.00
11
600.00
21
-200.00
31
0.00
0
LINE
8
OUTLINE
10
600.00
20
-200.00
30
0.00
11
0.00
21
-200.00
31
0.00
0
LINE
8
OUTLINE
10
0.00
20
-200.00
30
0.00
11
0.00
21
-800.00
31
0.00
0
LINE
8
COMPONENTS
10
80.00
20
-400.00
30
0.00
11
240.00
21
-400.00
31
0.00
0
LINE
8
COMPONENTS
10
240.00
20
-400.00
30
0.00
11
240.00
21
-240.00
31
0.00
0
LINE
8
COMPONENTS
10
240.00
20
-240.00
30
0.00
11
80.00
21
-240.00
31
0.00
0
LINE
8
COMPONENTS
10
80.00
20
-240.00
30
0.00
11
80.00
21
-400.00
31
0.00
0
TEXT
8
LABELS
10
95.00
20
-330.00
30
0.00
40
14.00
1
FAN 1 (120mm)
0
LINE
8
COMPONENTS
10
360.00
20
-400.00
30
0.00
11
520.00
21
-400.00
31
0.00
0
LINE
8
COMPONENTS
10
520.00
20
-400.00
30
0.00
11
520.00
21
-240.00
31
0.00
0
LINE
8
COMPONENTS
10
520.00
20
-240.00
30
0.00
11
360.00
21
-240.00
31
0.00
0
LINE
8
COMPONENTS
10
360.00
20
-240.00
30
0.00
11
360.00
21
-400.00
31
0.00
0
TEXT
8
LABELS
10
375.00
20
-330.00
30
0.00
40
14.00
1
FAN 2 (120mm)
0
LINE
8
DOORS_LOCKS
10
240.00
20
-785.00
30
0.00
11
360.00
21
-785.00
31
0.00
0
LINE
8
DOORS_LOCKS
10
360.00
20
-785.00
30
0.00
11
360.00
21
-750.00
31
0.00
0
LINE
8
DOORS_LOCKS
10
360.00
20
-750.00
30
0.00
11
240.00
21
-750.00
31
0.00
0
LINE
8
DOORS_LOCKS
10
240.00
20
-750.00
30
0.00
11
240.00
21
-785.00
31
0.00
0
TEXT
8
LABELS
10
250.00
20
-765.00
30
0.00
40
11.00
1
IEC AC INLET
0
ENDSEC
0
EOF