0
SECTION
2
HEADER
9
$ACADVER
1
AC1009
0
ENDSEC
0
SECTION
2
TABLES
0
TABLE
2
LAYER
70
8
0
LAYER
2
0
70
0
62
7
6
CONTINUOUS
0
LAYER
2
0_MDF_STRUCTURE
70
0
62
3
6
CONTINUOUS
0
LAYER
2
0_BOM_HARDWARE
70
0
62
4
6
CONTINUOUS
0
LAYER
2
0_ELECTRICAL
70
0
62
1
6
CONTINUOUS
0
LAYER
2
0_3D_PRINTED_PARTS
70
0
62
6
6
CONTINUOUS
0
LAYER
2
0_ACRYLIC_FASCIA
70
0
62
5
6
CONTINUOUS
0
LAYER
2
0_DIMENSIONS
70
0
62
2
6
CONTINUOUS
0
LAYER
2
0_BOM_TAGS
70
0
62
7
6
CONTINUOUS
0
ENDTAB
0
ENDSEC
0
SECTION
2
ENTITIES
0
TEXT
8
0_BOM_TAGS
10
100.00
20
1720.00
30
0.00
40
26.00
1
1. FRONT ELEVATION VIEW (Scale 1:1 mm)
0
LINE
8
0_MDF_STRUCTURE
10
0.00
20
0.00
30
0.00
11
600.00
21
0.00
31
0.00
0
LINE
8
0_MDF_STRUCTURE
10
600.00
20
0.00
30
0.00
11
600.00
21
1650.00
31
0.00
0
LINE
8
0_MDF_STRUCTURE
10
600.00
20
1650.00
30
0.00
11
0.00
21
1650.00
31
0.00
0
LINE
8
0_MDF_STRUCTURE
10
0.00
20
1650.00
30
0.00
11
0.00
21
0.00
31
0.00
0
LINE
8
0_MDF_STRUCTURE
10
12.00
20
1350.00
30
0.00
11
588.00
21
1350.00
31
0.00
0
LINE
8
0_MDF_STRUCTURE
10
588.00
20
1350.00
30
0.00
11
588.00
21
1650.00
31
0.00
0
LINE
8
0_MDF_STRUCTURE
10
588.00
20
1650.00
30
0.00
11
12.00
21
1650.00
31
0.00
0
LINE
8
0_MDF_STRUCTURE
10
12.00
20
1650.00
30
0.00
11
12.00
21
1350.00
31
0.00
0
LINE
8
0_ACRYLIC_FASCIA
10
40.00
20
1450.00
30
0.00
11
560.00
21
1450.00
31
0.00
0
LINE
8
0_ACRYLIC_FASCIA
10
560.00
20
1450.00
30
0.00
11
560.00
21
1620.00
31
0.00
0
LINE
8
0_ACRYLIC_FASCIA
10
560.00
20
1620.00
30
0.00
11
40.00
21
1620.00
31
0.00
0
LINE
8
0_ACRYLIC_FASCIA
10
40.00
20
1620.00
30
0.00
11
40.00
21
1450.00
31
0.00
0
TEXT
8
0_BOM_TAGS
10
150.00
20
1550.00
30
0.00
40
26.00
1
BITTU XEROX 24/7
0
TEXT
8
0_BOM_TAGS
10
170.00
20
1490.00
30
0.00
40
14.00
1
SMART CAMPUS PRINTING HUB
0
LINE
8
0_BOM_HARDWARE
10
90.00
20
1040.00
30
0.00
11
510.00
21
1040.00
31
0.00
0
LINE
8
0_BOM_HARDWARE
10
510.00
20
1040.00
30
0.00
11
510.00
21
1300.00
31
0.00
0
LINE
8
0_BOM_HARDWARE
10
510.00
20
1300.00
30
0.00
11
90.00
21
1300.00
31
0.00
0
LINE
8
0_BOM_HARDWARE
10
90.00
20
1300.00
30
0.00
11
90.00
21
1040.00
31
0.00
0
LINE
8
0_3D_PRINTED_PARTS
10
85.00
20
1035.00
30
0.00
11
515.00
21
1035.00
31
0.00
0
LINE
8
0_3D_PRINTED_PARTS
10
515.00
20
1035.00
30
0.00
11
515.00
21
1305.00
31
0.00
0
LINE
8
0_3D_PRINTED_PARTS
10
515.00
20
1305.00
30
0.00
11
85.00
21
1305.00
31
0.00
0
LINE
8
0_3D_PRINTED_PARTS
10
85.00
20
1305.00
30
0.00
11
85.00
21
1035.00
31
0.00
0
TEXT
8
0_BOM_TAGS
10
130.00
20
1160.00
30
0.00
40
16.00
1
BIG 15.6" FHD TOUCHSCREEN DISPLAY
0
LINE
8
0_MDF_STRUCTURE
10
20.00
20
830.00
30
0.00
11
580.00
21
830.00
31
0.00
0
LINE
8
0_MDF_STRUCTURE
10
580.00
20
830.00
30
0.00
11
580.00
21
1020.00
31
0.00
0
LINE
8
0_MDF_STRUCTURE
10
580.00
20
1020.00
30
0.00
11
20.00
21
1020.00
31
0.00
0
LINE
8
0_MDF_STRUCTURE
10
20.00
20
1020.00
30
0.00
11
20.00
21
830.00
31
0.00
0
LINE
8
0_ACRYLIC_FASCIA
10
140.00
20
850.00
30
0.00
11
460.00
21
850.00
31
0.00
0
LINE
8
0_ACRYLIC_FASCIA
10
460.00
20
850.00
30
0.00
11
460.00
21
1000.00
31
0.00
0
LINE
8
0_ACRYLIC_FASCIA
10
460.00
20
1000.00
30
0.00
11
140.00
21
1000.00
31
0.00
0
LINE
8
0_ACRYLIC_FASCIA
10
140.00
20
1000.00
30
0.00
11
140.00
21
850.00
31
0.00
0
TEXT
8
0_BOM_TAGS
10
170.00
20
920.00
30
0.00
40
12.00
1
SMARTPHONE STAGING DOCK (UPI / QR)
0
LINE
8
0_BOM_HARDWARE
10
60.00
20
760.00
30
0.00
11
540.00
21
760.00
31
0.00
0
LINE
8
0_BOM_HARDWARE
10
540.00
20
760.00
30
0.00
11
540.00
21
810.00
31
0.00
0
LINE
8
0_BOM_HARDWARE
10
540.00
20
810.00
30
0.00
11
60.00
21
810.00
31
0.00
0
LINE
8
0_BOM_HARDWARE
10
60.00
20
810.00
30
0.00
11
60.00
21
760.00
31
0.00
0
TEXT
8
0_BOM_TAGS
10
180.00
20
780.00
30
0.00
40
14.00
1
CANON LiDE 300 SCANNER
0
LINE
8
0_ACRYLIC_FASCIA
10
70.00
20
530.00
30
0.00
11
530.00
21
530.00
31
0.00
0
LINE
8
0_ACRYLIC_FASCIA
10
530.00
20
530.00
30
0.00
11
530.00
21
595.00
31
0.00
0
LINE
8
0_ACRYLIC_FASCIA
10
530.00
20
595.00
30
0.00
11
70.00
21
595.00
31
0.00
0
LINE
8
0_ACRYLIC_FASCIA
10
70.00
20
595.00
30
0.00
11
70.00
21
530.00
31
0.00
0
TEXT
8
0_BOM_TAGS
10
160.00
20
560.00
30
0.00
40
14.00
1
PRINT RETRIEVAL CHUTE (A4 DUPLEX)
0
LINE
8
0_BOM_HARDWARE
10
50.00
20
520.00
30
0.00
11
550.00
21
520.00
31
0.00
0
LINE
8
0_BOM_HARDWARE
10
550.00
20
520.00
30
0.00
11
550.00
21
730.00
31
0.00
0
LINE
8
0_BOM_HARDWARE
10
550.00
20
730.00
30
0.00
11
50.00
21
730.00
31
0.00
0
LINE
8
0_BOM_HARDWARE
10
50.00
20
730.00
30
0.00
11
50.00
21
520.00
31
0.00
0
TEXT
8
0_BOM_TAGS
10
140.00
20
640.00
30
0.00
40
14.00
1
BROTHER HL-L2321D LASER PRINTER
0
LINE
8
0_BOM_HARDWARE
10
50.00
20
260.00
30
0.00
11
310.00
21
260.00
31
0.00
0
LINE
8
0_BOM_HARDWARE
10
310.00
20
260.00
30
0.00
11
310.00
21
405.00
31
0.00
0
LINE
8
0_BOM_HARDWARE
10
310.00
20
405.00
30
0.00
11
50.00
21
405.00
31
0.00
0
LINE
8
0_BOM_HARDWARE
10
50.00
20
405.00
30
0.00
11
50.00
21
260.00
31
0.00
0
TEXT
8
0_BOM_TAGS
10
65.00
20
330.00
30
0.00
40
12.00
1
1,500 SHEETS A4 PAPER RESERVE
0
LINE
8
0_BOM_HARDWARE
10
350.00
20
36.00
30
0.00
11
530.00
21
36.00
31
0.00
0
LINE
8
0_BOM_HARDWARE
10
530.00
20
36.00
30
0.00
11
530.00
21
480.00
31
0.00
0
LINE
8
0_BOM_HARDWARE
10
530.00
20
480.00
30
0.00
11
350.00
21
480.00
31
0.00
0
LINE
8
0_BOM_HARDWARE
10
350.00
20
480.00
30
0.00
11
350.00
21
36.00
31
0.00
0
TEXT
8
0_BOM_TAGS
10
370.00
20
240.00
30
0.00
40
12.00
1
COLLECTION BIN
0
LINE
8
0_ELECTRICAL
10
50.00
20
36.00
30
0.00
11
210.00
21
36.00
31
0.00
0
LINE
8
0_ELECTRICAL
10
210.00
20
36.00
30
0.00
11
210.00
21
216.00
31
0.00
0
LINE
8
0_ELECTRICAL
10
210.00
20
216.00
30
0.00
11
50.00
21
216.00
31
0.00
0
LINE
8
0_ELECTRICAL
10
50.00
20
216.00
30
0.00
11
50.00
21
36.00
31
0.00
0
TEXT
8
0_BOM_TAGS
10
60.00
20
120.00
30
0.00
40
12.00
1
600VA UPS POWER
0
LINE
8
0_DIMENSIONS
10
-60.00
20
0.00
30
0.00
11
-60.00
21
1650.00
31
0.00
0
LINE
8
0_DIMENSIONS
10
-75.00
20
0.00
30
0.00
11
-45.00
21
0.00
31
0.00
0
LINE
8
0_DIMENSIONS
10
-75.00
20
1650.00
30
0.00
11
-45.00
21
1650.00
31
0.00
0
TEXT
8
0_DIMENSIONS
10
-220.00
20
800.00
30
0.00
40
20.00
1
TOTAL H = 1650 mm
0
LINE
8
0_DIMENSIONS
10
0.00
20
-60.00
30
0.00
11
600.00
21
-60.00
31
0.00
0
LINE
8
0_DIMENSIONS
10
0.00
20
-75.00
30
0.00
11
0.00
21
-45.00
31
0.00
0
LINE
8
0_DIMENSIONS
10
600.00
20
-75.00
30
0.00
11
600.00
21
-45.00
31
0.00
0
TEXT
8
0_DIMENSIONS
10
220.00
20
-100.00
30
0.00
40
20.00
1
WIDTH = 600 mm
0
TEXT
8
0_BOM_TAGS
10
950.00
20
1720.00
30
0.00
40
26.00
1
2. SIDE SECTION VIEW (Depth: 600 mm)
0
LINE
8
0_MDF_STRUCTURE
10
850.00
20
0.00
30
0.00
11
1450.00
21
0.00
31
0.00
0
LINE
8
0_MDF_STRUCTURE
10
1450.00
20
0.00
30
0.00
11
1450.00
21
1650.00
31
0.00
0
LINE
8
0_MDF_STRUCTURE
10
1450.00
20
1650.00
30
0.00
11
850.00
21
1650.00
31
0.00
0
LINE
8
0_MDF_STRUCTURE
10
850.00
20
1650.00
30
0.00
11
850.00
21
1180.00
31
0.00
0
LINE
8
0_MDF_STRUCTURE
10
850.00
20
1180.00
30
0.00
11
790.00
21
880.00
31
0.00
0
LINE
8
0_MDF_STRUCTURE
10
790.00
20
880.00
30
0.00
11
850.00
21
820.00
31
0.00
0
LINE
8
0_MDF_STRUCTURE
10
850.00
20
820.00
30
0.00
11
850.00
21
0.00
31
0.00
0
LINE
8
0_BOM_HARDWARE
10
1430.00
20
1420.00
30
0.00
11
1445.00
21
1420.00
31
0.00
0
LINE
8
0_BOM_HARDWARE
10
1445.00
20
1420.00
30
0.00
11
1445.00
21
1600.00
31
0.00
0
LINE
8
0_BOM_HARDWARE
10
1445.00
20
1600.00
30
0.00
11
1430.00
21
1600.00
31
0.00
0
LINE
8
0_BOM_HARDWARE
10
1430.00
20
1600.00
30
0.00
11
1430.00
21
1420.00
31
0.00
0
TEXT
8
0_BOM_TAGS
10
1280.00
20
1520.00
30
0.00
40
11.00
1
REAR EXHAUST VENTS
0
ENDSEC
0
EOF